<svg xmlns="http://www.w3.org/2000/svg" width="52.05" height="31.523" viewBox="0 0 52.05 31.523"><defs><style>.a{opacity:0.8;}</style></defs><g class="a" transform="translate(0 0)"><path d="M261.9,70.982a.176.176,0,0,1,.144-.048,1.612,1.612,0,0,0,.814-.527c.048-.048.1-.1.1-.144s.048-.1.048-.144a.59.59,0,0,0-.24-.479.435.435,0,0,0-.479,0c-.1.1-.239.192-.335.287l-.335.335a.4.4,0,0,0-.1.287C261.47,70.838,261.613,70.982,261.9,70.982Z" transform="translate(-229.623 -59.199)"/><g transform="translate(0 0)"><path d="M99.226,12.179a11.478,11.478,0,0,0,.445-1.608c.137-.513.24-1.027.342-1.574.137-.582.239-1.2.342-1.779s.205-1.2.308-1.779a7.271,7.271,0,0,0,.1-.855,3.583,3.583,0,0,0,0-.856,5.813,5.813,0,0,0-.137-.753,1.4,1.4,0,0,0-1.4-1.129,3.63,3.63,0,0,0-.992.137,6.8,6.8,0,0,0-1.608.719,10.917,10.917,0,0,0-1.437,1.026c-.205.171-.445.376-.616.548-.205.171-.411.376-.582.548a24.754,24.754,0,0,0-5,7.015,17.1,17.1,0,0,0-.719,1.643,10.117,10.117,0,0,0-.479,1.745c-.068.342-.137.684-.171,1.027a5.161,5.161,0,0,0,0,1.027,4.141,4.141,0,0,0,.274,1.163,2.362,2.362,0,0,0,.684.958,3.459,3.459,0,0,0,1.266.753,3.953,3.953,0,0,0,1.437.171,1.239,1.239,0,0,0,.376-.1.173.173,0,0,0,.137-.239.3.3,0,0,0-.239-.205c-.068,0-.171-.034-.308-.034a2.936,2.936,0,0,1-.548-.034c-.171-.034-.342-.068-.548-.1a2.67,2.67,0,0,1-1.369-.787,2.25,2.25,0,0,1-.616-1.471v-.479a7.1,7.1,0,0,1,.205-1.711,9.926,9.926,0,0,1,.479-1.642,20.274,20.274,0,0,1,1.163-2.464,23.22,23.22,0,0,1,1.437-2.293,23.974,23.974,0,0,1,1.779-2.293,19.081,19.081,0,0,1,2.053-2.019,9.732,9.732,0,0,1,1.814-1.3,6.871,6.871,0,0,1,.719-.342,2.848,2.848,0,0,1,.719-.205,3.779,3.779,0,0,1,.616-.068.581.581,0,0,1,.445.137.764.764,0,0,1,.24.411,1.847,1.847,0,0,1,.034.376v.479a2.265,2.265,0,0,1-.034.479c-.1.65-.205,1.266-.308,1.916s-.205,1.266-.342,1.916c-.205.958-.411,1.882-.616,2.806s-.445,1.848-.65,2.772c-.171.821-.342,1.54-.479,2.224-.137.65-.274,1.3-.445,1.95-.137.616-.274,1.266-.445,1.916s-.308,1.4-.479,2.19c-.137.65-.308,1.369-.513,2.121-.171.787-.376,1.574-.582,2.429-.205.821-.376,1.643-.582,2.429-.171.787-.342,1.54-.445,2.19-.034.171-.068.376-.1.582s-.068.376-.1.582a.914.914,0,0,0,.1.616.493.493,0,0,0,.377.308.471.471,0,0,0,.445-.171l.068-.068.684-.821a2.063,2.063,0,0,0,.137-.205.333.333,0,0,0-.034-.308q-.1-.1-.308,0c-.034.034-.137.1-.24.205a.745.745,0,0,1-.171.1.579.579,0,0,0-.205.205v-.034a.206.206,0,0,1,.034-.137c.034-.274.1-.548.137-.787a6.494,6.494,0,0,1,.171-.787c.171-.753.342-1.574.582-2.429.205-.856.411-1.711.616-2.6s.411-1.779.616-2.635c.205-.89.411-1.711.582-2.5.171-.821.342-1.54.479-2.19s.274-1.3.445-1.916c.137-.616.274-1.266.445-1.916C98.85,13.719,99.021,13,99.226,12.179Z" transform="translate(-87.601 -1.845)"/><path d="M187.965,29.425c.527-1.054,1.006-2.06,1.437-3.113L190.7,23.15c.287-.767.527-1.485.767-2.251a19.9,19.9,0,0,0,.527-2.3,4.207,4.207,0,0,0,.1-.766,3.621,3.621,0,0,0-.048-.718.9.9,0,0,0-.192-.479.745.745,0,0,0-.383-.287.586.586,0,0,0-.431.192c-.048.1-.144.192-.192.287a2.335,2.335,0,0,0-.144.335,2.936,2.936,0,0,0-.239.575,2.932,2.932,0,0,1-.24.575c-.479,1.006-.91,1.964-1.341,2.969a29.9,29.9,0,0,0-1.15,3.113c-.383,1.2-.766,2.347-1.1,3.5s-.671,2.347-1.006,3.544a3.325,3.325,0,0,1-.239.623,3.57,3.57,0,0,1-.335.575c-.335.383-.67.814-1.006,1.2s-.67.814-1.006,1.2l-.575.575a5.717,5.717,0,0,1-.575.527c-.048,0-.1.048-.144.1a.09.09,0,0,1-.144,0,2.223,2.223,0,0,1,.144-.431,15.211,15.211,0,0,1,1.149-2.347l.192-.335a.776.776,0,0,1,.766-.383h.192a.7.7,0,0,0,.431-.287.433.433,0,0,0,0-.479.851.851,0,0,0-.335-.383,1.311,1.311,0,0,0-1.389-.192,1.2,1.2,0,0,0-.335.192c-.144-.048-.287.048-.431.192-.431.383-.862.814-1.293,1.245s-.862.814-1.293,1.245c-.479.431-.958.862-1.389,1.293s-.91.862-1.389,1.293a6.9,6.9,0,0,1-.719.527,4.348,4.348,0,0,1-.766.527,4.288,4.288,0,0,1-.479.239c-.239.1-.335.048-.335-.144.144-1.293.335-2.538.575-3.784a30.927,30.927,0,0,1,.862-3.64,1.889,1.889,0,0,1,.1-.287.815.815,0,0,0,.048-.335v-.335c0-.1-.048-.144-.144-.192a.522.522,0,0,0-.527.1,2.651,2.651,0,0,0-.287.383l-.335.862a13.284,13.284,0,0,0-.383,1.293c-.048.048-.144.1-.191.192l-.431.431c-.671.671-1.293,1.341-1.916,2.012s-1.245,1.341-1.82,2.059c-.048.048-.1.1-.1.144s-.1.1-.192.048l-.1-.527a6.019,6.019,0,0,0-1.437-3.161l-.862-.958a1.034,1.034,0,0,1-.24-1.293,5.409,5.409,0,0,1,1.676-2.06l.1-.144.1.1a.167.167,0,0,0,.1.048c.239.144.431.144.575-.1a1.4,1.4,0,0,0,.1-.431c-.048-.383-.239-.527-.623-.479a.927.927,0,0,0-.623.287,6.936,6.936,0,0,0-1.82,1.916c-.144.239-.287.527-.431.814a1.255,1.255,0,0,0-.1.718c-.1.1-.191.144-.239.192-.335.335-.671.671-1.054,1.006s-.719.671-1.054,1.006a9.38,9.38,0,0,1-1.006.862c-.1.048-.192.144-.287.144a2.307,2.307,0,0,1-.335.144.242.242,0,0,1-.335-.192,3.982,3.982,0,0,1-.192-.718,4.214,4.214,0,0,1-.1-.814c0-.287-.048-.527-.048-.814,0-.335-.048-.671-.048-.958a6.772,6.772,0,0,0-.048-.958,4.054,4.054,0,0,0-.192-.814c-.239-.479-.575-.623-1.054-.335a.479.479,0,0,0-.239.192l-.192.192a5.906,5.906,0,0,0-1.054,1.389c-.239.383-.431.766-.623,1.15s-.383.718-.575,1.149l-.335.527a.934.934,0,0,1,.048-.335l.958-3.3a5.81,5.81,0,0,0,.239-.862c.048-.287.144-.575.192-.862a1.649,1.649,0,0,0,.048-.431.29.29,0,0,0-.144-.287,2.332,2.332,0,0,0-.335-.144.427.427,0,0,0-.527.335c-.1.287-.192.575-.287.814l-1.82,6.131a9.354,9.354,0,0,0-.24.958c-.048.287-.144.623-.192.958,0,.1-.048.239-.048.335v.335c0,.1.048.144.144.192a.68.68,0,0,0,.287.1.528.528,0,0,0,.431-.144l.191-.335,2.108-3.832a12.078,12.078,0,0,1,.623-1.054c.192-.335.431-.719.623-1.054a4.369,4.369,0,0,1,.383-.623,3.242,3.242,0,0,1,.575-.575.175.175,0,0,0,.048.144v.192c0,.335.048.67.048.958a6.745,6.745,0,0,0,.048.958c0,.239.048.527.048.766a4.791,4.791,0,0,0,.1.766,2.931,2.931,0,0,0,.335,1.15,1.006,1.006,0,0,0,1.293.479c.144-.048.335-.1.479-.144a1.04,1.04,0,0,0,.383-.239c.192-.144.383-.335.575-.479a5.075,5.075,0,0,0,.575-.479l.479-.479a4.512,4.512,0,0,0,.479-.479l.527-.527c.192-.192.431-.383.671-.623a.664.664,0,0,0,.144.192l.287.287a2.731,2.731,0,0,1,.335.383c.1.144.24.24.335.383a4.743,4.743,0,0,1,1.006,1.676,8,8,0,0,1,.335,1.964,1.5,1.5,0,0,1-.335,1.006c-.67.862-1.341,1.772-1.964,2.634-.623.91-1.245,1.82-1.82,2.778-.239.383-.431.766-.67,1.149a12.265,12.265,0,0,0-.527,1.15c-.048.144-.144.335-.192.479s-.1.335-.144.527a1.189,1.189,0,0,0-.048.383c0,.431.192.623.623.575a2.376,2.376,0,0,0,.623-.192,7.617,7.617,0,0,0,1.15-.958,11.976,11.976,0,0,0,1.628-1.868,11.807,11.807,0,0,0,1.2-2.155,18.427,18.427,0,0,0,.814-2.06,11.331,11.331,0,0,0,.383-2.155,1.446,1.446,0,0,1,.383-.862c.048-.048.1-.1.1-.144s.048-.1.1-.144c.67-.814,1.389-1.629,2.155-2.395l1.724-1.724c-.048.144-.048.287-.1.431-.192,1.006-.335,2.012-.479,3.065a3.126,3.126,0,0,0,0,.671v.67a2.81,2.81,0,0,0,.1.623.67.67,0,0,0,1.006.479,1.7,1.7,0,0,0,.766-.431c.335-.239.67-.527,1.006-.814l1.006-.862c.862-.766,1.676-1.581,2.539-2.347.383-.383.766-.719,1.15-1.1a7.757,7.757,0,0,0-.575,2.06,1.984,1.984,0,0,0,.1.766.972.972,0,0,0,.575.575.986.986,0,0,0,.814-.1c.144-.1.239-.192.335-.24l.766-.766.766-.766c.144-.192.335-.383.479-.575a5.738,5.738,0,0,1,.527-.575l.048-.048v.192c-.287,1.054-.527,2.107-.767,3.209s-.431,2.155-.67,3.257c-.1.479-.239,1.006-.287,1.485-.1.479-.192,1.006-.287,1.485a1.7,1.7,0,0,0-.1.479c0,.144-.048.335-.048.479a2.47,2.47,0,0,0,.048.862.579.579,0,0,0,.335.335.621.621,0,0,0,.479-.1.363.363,0,0,0,.144-.431c0-.048-.048-.144-.048-.192s-.048-.144-.048-.192a7.2,7.2,0,0,1,.1-.958c.144-.718.335-1.437.431-2.155l.431-2.155c.287-1.341.623-2.634.958-3.928s.718-2.586,1.1-3.88a1.2,1.2,0,0,1,.192-.335c.048-.1.144-.239.192-.335.144-.287.335-.623.479-.91C187.63,30.048,187.773,29.76,187.965,29.425ZM168.183,41.255a12.562,12.562,0,0,1-1.1,2.3,13.628,13.628,0,0,1-1.628,2.347,5.877,5.877,0,0,1-1.629,1.437c0-.144,0-.239.048-.287a6.782,6.782,0,0,1,.383-.862,6.781,6.781,0,0,0,.383-.862,18.9,18.9,0,0,1,1.389-2.347c.479-.766,1.006-1.485,1.533-2.251l.718-.958c0-.048.048-.1.048-.144s.048-.1.1-.144v.048A3.05,3.05,0,0,1,168.183,41.255Zm19.207-12.5c.1-.335.239-.671.383-1.054s.287-.766.383-1.1a8.873,8.873,0,0,0,.287-.862c.335-1.2.718-2.395,1.149-3.544q.575-1.724,1.293-3.449a3.335,3.335,0,0,0,.144-.383c.048-.144.1-.239.144-.383,0-.048.048-.1.048-.144s.048-.1.1-.192v.527a18.654,18.654,0,0,1-.431,2.251c-.192.718-.431,1.437-.671,2.155-.335.91-.67,1.772-1.054,2.634s-.766,1.724-1.15,2.634l-.192.431a3.169,3.169,0,0,1-.287.575,3.138,3.138,0,0,1-.287.575A3.338,3.338,0,0,1,187.39,28.754Z" transform="translate(-143.761 -16.349)"/><path d="M328.881,71.761a.346.346,0,0,0-.431-.048,1.423,1.423,0,0,0-.383.335l-.814.814c-.287.287-.527.575-.814.862l-1.054,1.054a7.624,7.624,0,0,1-1.15.958,6.97,6.97,0,0,1-.623.479c-.192.144-.431.287-.622.431a2.5,2.5,0,0,1-.719.335.572.572,0,0,1-.814-.431V75.5c.048-.479.144-1.006.24-1.485s.239-.958.383-1.437a.449.449,0,0,1,.287-.383c.144-.1.287-.239.431-.335a2.738,2.738,0,0,0,.383-.335,11.688,11.688,0,0,0,2.251-3.4,3.292,3.292,0,0,0,.144-.383c.048-.144.1-.239.144-.383a2.053,2.053,0,0,0,0-.766c-.144-.479-.479-.623-.862-.431a.744.744,0,0,0-.383.287l-.287.287c-.1.1-.144.192-.239.287-.192.239-.383.527-.575.814s-.383.527-.575.814c-.335.527-.622,1.1-.958,1.724-.287.623-.527,1.2-.766,1.82-.192.623-.383,1.245-.527,1.82a11,11,0,0,0-.239,1.533v.383a1.055,1.055,0,0,0,.048.383l.1.527a1.781,1.781,0,0,0,.814,1.054,1.426,1.426,0,0,0,1.389,0,2.247,2.247,0,0,0,.479-.239l.431-.287a11.867,11.867,0,0,0,1.724-1.341c.527-.479,1.054-1.006,1.581-1.533.287-.335.623-.623.91-.958.287-.287.575-.623.91-.958a3.312,3.312,0,0,0,.24-.335C329.072,72,329.024,71.857,328.881,71.761Zm-5.843-1.485c.048-.144.1-.239.144-.383a17.634,17.634,0,0,1,1.054-2.012,7.4,7.4,0,0,1,.814-1.054l.048.048a1.034,1.034,0,0,1-.048.527,7.41,7.41,0,0,1-.91,1.724,17.929,17.929,0,0,1-1.245,1.581Z" transform="translate(-276.965 -56.386)"/></g></g></svg>